STARTFONT 2.1
COMMENT This font was automaticaly reencoded from ISO8859-2 to ISO10646-1.
COMMENT by trbdf utility (ftp://lml.bas.bg/home/anton/linux/trscripts-1.5.tar.gz)
COMMENT The COMMENTs below (if any) are from the original font.
COMMENT ---------------------------------------------------------
COMMENT +
COMMENT  Copyright 1986, 1985 Bigelow & Holmes. 
COMMENT  Copyright 1996 BIZNET Poland, Inc.
COMMENT -
FONT -BIZNET-FotinosTypewriter-Bold-R-Normal-Sans-20-140-100-100-M-120-ISO10646-1
SIZE 14 100 100
FONTBOUNDINGBOX 13 19 0 -4
STARTPROPERTIES 21
FOUNDRY "BIZNET"
FAMILY_NAME "BIZNET FotinosTypewriter"
WEIGHT_NAME "Bold"
SLANT "R"
SETWIDTH_NAME "Normal"
ADD_STYLE_NAME "Sans"
PIXEL_SIZE 20
POINT_SIZE 140
RESOLUTION_X 100
RESOLUTION_Y 100
SPACING "M"
AVERAGE_WIDTH 120
CHARSET_REGISTRY "ISO10646"
CHARSET_ENCODING "1"
FONT_ASCENT 18
FONT_DESCENT 4
FACE_NAME "BIZNET Fotinos Sans Typewriter Bold"
CHARSET_COLLECTIONS "ASCII ISO8859-2"
COPYRIGHT "Copyright Bigelow & Holmes 1986, 1985. Copyright (c) 1996 BIZNET Poland, Inc. All Rights Reserved."
NOTICE "The name "BIZNET" is a registered trademark of BIZNET Poland, Inc."
DEFAULT_CHAR 32
ENDPROPERTIES
CHARS 213
STARTCHAR Lslash
ENCODING 321
SWIDTH 42 0
DWIDTH 12 0
BBX 12 14 0 0
BITMAP
3800
3800
3800
3A00
3E00
3E00
7800
F800
B800
3800
3800
3800
3FF0
3FF0
ENDCHAR
STARTCHAR lslash
ENCODING 322
SWIDTH 42 0
DWIDTH 12 0
BBX 9 14 1 0
BITMAP
FE00
FE00
0E00
0E80
0E80
0F80
0E00
3E00
7E00
4E00
0E00
0E00
0E00
0E00
ENDCHAR
STARTCHAR Nacute
ENCODING 323
SWIDTH 602 0
DWIDTH 12 0
BBX 10 18 1 0
BITMAP
0700
0E00
1C00
0000
E0C0
F0C0
F0C0
F8C0
F8C0
DCC0
DEC0
CEC0
CFC0
C7C0
C7C0
C3C0
C3C0
C1C0
ENDCHAR
STARTCHAR nacute
ENCODING 324
SWIDTH 602 0
DWIDTH 12 0
BBX 9 15 2 0
BITMAP
0700
0E00
1C00
0000
EF00
FF80
FF80
F380
E380
E380
E380
E380
E380
E380
E380
ENDCHAR
STARTCHAR n
ENCODING 110
SWIDTH 602 0
DWIDTH 12 0
BBX 9 11 2 0
BITMAP
EF00
FF80
FF80
F380
E380
E380
E380
E380
E380
E380
E380
ENDCHAR
STARTCHAR o
ENCODING 111
SWIDTH 602 0
DWIDTH 12 0
BBX 11 11 0 0
BITMAP
1F00
7FC0
71C0
E0E0
E0E0
E0E0
E0E0
E0E0
71C0
3FC0
1F00
ENDCHAR
STARTCHAR p
ENCODING 112
SWIDTH 602 0
DWIDTH 12 0
BBX 10 15 1 -4
BITMAP
EF00
EF80
FFC0
F3C0
E1C0
E1C0
E1C0
E1C0
F380
FF80
EF00
E000
E000
E000
E000
ENDCHAR
STARTCHAR Ncaron
ENCODING 327
SWIDTH 602 0
DWIDTH 12 0
BBX 10 18 1 0
BITMAP
3300
1E00
0C00
0000
E0C0
F0C0
F0C0
F8C0
F8C0
DCC0
DEC0
CEC0
CFC0
C7C0
C7C0
C3C0
C3C0
C1C0
ENDCHAR
STARTCHAR Racute
ENCODING 340
SWIDTH 602 0
DWIDTH 12 0
BBX 11 18 1 0
BITMAP
0700
0E00
1C00
0000
FF00
FF80
E1C0
E1C0
E1C0
E1C0
E380
FF00
FF00
E700
E780
E380
E1C0
E1E0
ENDCHAR
STARTCHAR q
ENCODING 113
SWIDTH 602 0
DWIDTH 12 0
BBX 10 15 1 -4
BITMAP
3FC0
7FC0
73C0
E1C0
E1C0
E1C0
E1C0
F3C0
FFC0
7DC0
39C0
01C0
01C0
01C0
01C0
ENDCHAR
STARTCHAR ncaron
ENCODING 328
SWIDTH 602 0
DWIDTH 12 0
BBX 9 15 2 0
BITMAP
3300
1E00
0C00
0000
EF00
FF80
FF80
F380
E380
E380
E380
E380
E380
E380
E380
ENDCHAR
STARTCHAR racute
ENCODING 341
SWIDTH 602 0
DWIDTH 12 0
BBX 9 15 2 0
BITMAP
0700
0E00
1C00
0000
E780
EF80
FF80
F180
E000
E000
E000
E000
E000
E000
E000
ENDCHAR
STARTCHAR r
ENCODING 114
SWIDTH 602 0
DWIDTH 12 0
BBX 9 11 2 0
BITMAP
E780
EF80
FF80
F180
E000
E000
E000
E000
E000
E000
E000
ENDCHAR
STARTCHAR s
ENCODING 115
SWIDTH 602 0
DWIDTH 12 0
BBX 9 11 2 0
BITMAP
3F00
7F00
E100
F000
FC00
7F00
1F80
0380
8380
FF00
7E00
ENDCHAR
STARTCHAR t
ENCODING 116
SWIDTH 602 0
DWIDTH 12 0
BBX 9 13 2 0
BITMAP
3800
3800
FF80
FF80
3800
3800
3800
3800
3800
3800
3800
1F80
0F80
ENDCHAR
STARTCHAR Rcaron
ENCODING 344
SWIDTH 602 0
DWIDTH 12 0
BBX 11 18 1 0
BITMAP
3300
1E00
0C00
0000
FF00
FF80
E1C0
E1C0
E1C0
E1C0
E380
FF00
FF00
E700
E780
E380
E1C0
E1E0
ENDCHAR
STARTCHAR u
ENCODING 117
SWIDTH 602 0
DWIDTH 12 0
BBX 9 11 1 0
BITMAP
E380
E380
E380
E380
E380
E380
E380
E780
FF80
FF80
7B80
ENDCHAR
STARTCHAR rcaron
ENCODING 345
SWIDTH 602 0
DWIDTH 12 0
BBX 9 15 2 0
BITMAP
3300
1E00
0C00
0000
E780
EF80
FF80
F180
E000
E000
E000
E000
E000
E000
E000
ENDCHAR
STARTCHAR v
ENCODING 118
SWIDTH 602 0
DWIDTH 12 0
BBX 11 11 1 0
BITMAP
E060
F0C0
70C0
70C0
3980
3980
3B80
1F00
1F00
1E00
0E00
ENDCHAR
STARTCHAR Sacute
ENCODING 346
SWIDTH 602 0
DWIDTH 12 0
BBX 10 18 1 0
BITMAP
0380
0700
0E00
0000
3F80
7F80
E080
E000
F000
FC00
3F00
1F80
07C0
01C0
01C0
83C0
FF80
FE00
ENDCHAR
STARTCHAR w
ENCODING 119
SWIDTH 602 0
DWIDTH 12 0
BBX 12 11 0 0
BITMAP
E030
E730
E730
7F20
7F60
7FE0
7DE0
79E0
79E0
39C0
38C0
ENDCHAR
STARTCHAR sacute
ENCODING 347
SWIDTH 602 0
DWIDTH 12 0
BBX 9 15 2 0
BITMAP
0700
0E00
1C00
0000
3F00
7F00
E100
F000
FC00
7F00
1F80
0380
8380
FF00
7E00
ENDCHAR
STARTCHAR Uring
ENCODING 366
SWIDTH 602 0
DWIDTH 12 0
BBX 10 18 1 0
BITMAP
0E00
0A00
0E00
0000
E1C0
E1C0
E1C0
E1C0
E1C0
E1C0
E1C0
E1C0
E1C0
E1C0
E1C0
F3C0
7F80
3F00
ENDCHAR
STARTCHAR uring
ENCODING 367
SWIDTH 602 0
DWIDTH 12 0
BBX 9 15 1 0
BITMAP
0E00
0A00
0E00
0000
E380
E380
E380
E380
E380
E380
E380
E780
FF80
FF80
7B80
ENDCHAR
STARTCHAR zdotaccent
ENCODING 380
SWIDTH 602 0
DWIDTH 12 0
BBX 10 15 1 0
BITMAP
0C00
0C00
0000
0000
FFC0
FFC0
03C0
0780
0F00
1E00
3C00
7800
F000
FFC0
FFC0
ENDCHAR
STARTCHAR Uhungarumlaut
ENCODING 368
SWIDTH 602 0
DWIDTH 12 0
BBX 10 18 1 0
BITMAP
0EC0
0D80
1B00
0000
E1C0
E1C0
E1C0
E1C0
E1C0
E1C0
E1C0
E1C0
E1C0
E1C0
E1C0
F3C0
7F80
3F00
ENDCHAR
STARTCHAR Zcaron
ENCODING 381
SWIDTH 602 0
DWIDTH 12 0
BBX 10 18 1 0
BITMAP
3300
1E00
0C00
0000
FFC0
FFC0
03C0
0380
0700
0F00
0E00
1C00
3C00
3800
7800
F000
FFC0
FFC0
ENDCHAR
STARTCHAR uhungarumlaut
ENCODING 369
SWIDTH 602 0
DWIDTH 12 0
BBX 9 15 1 0
BITMAP
1D80
1B00
3600
0000
E380
E380
E380
E380
E380
E380
E380
E780
FF80
FF80
7B80
ENDCHAR
STARTCHAR zcaron
ENCODING 382
SWIDTH 602 0
DWIDTH 12 0
BBX 10 15 1 0
BITMAP
3300
1E00
0C00
0000
FFC0
FFC0
03C0
0780
0F00
1E00
3C00
7800
F000
FFC0
FFC0
ENDCHAR
STARTCHAR hyphen
ENCODING 173
SWIDTH 602 0
DWIDTH 12 0
BBX 8 2 2 6
BITMAP
FF
FF
ENDCHAR
STARTCHAR uni000A
ENCODING 10
SWIDTH 602 0
DWIDTH 12 0
BBX 11 14 1 0
BITMAP
E0E0
E1C0
E380
E700
E600
EC00
FC00
FE00
EE00
EF00
E780
E380
E3C0
E1E0
ENDCHAR
STARTCHAR uni000B
ENCODING 11
SWIDTH 602 0
DWIDTH 12 0
BBX 3 3 4 0
BITMAP
E0
E0
E0
ENDCHAR
STARTCHAR degree
ENCODING 176
SWIDTH 602 0
DWIDTH 12 0
BBX 3 3 4 11
BITMAP
E0
A0
E0
ENDCHAR
STARTCHAR uni000C
ENCODING 12
SWIDTH 602 0
DWIDTH 12 0
BBX 3 3 4 0
BITMAP
E0
E0
E0
ENDCHAR
STARTCHAR uni000D
ENCODING 13
SWIDTH 602 0
DWIDTH 12 0
BBX 3 3 4 0
BITMAP
E0
E0
E0
ENDCHAR
STARTCHAR Oacute
ENCODING 211
SWIDTH 602 0
DWIDTH 12 0
BBX 12 18 0 0
BITMAP
0700
0E00
1C00
0000
1F80
3FC0
70E0
6060
E070
E070
E070
E070
E070
E070
6060
70E0
3FC0
1F80
ENDCHAR
STARTCHAR uni000E
ENCODING 14
SWIDTH 602 0
DWIDTH 12 0
BBX 3 5 4 9
BITMAP
60
E0
E0
E0
E0
ENDCHAR
STARTCHAR Ocircumflex
ENCODING 212
SWIDTH 602 0
DWIDTH 12 0
BBX 12 18 0 0
BITMAP
0600
0F00
1980
0000
1F80
3FC0
70E0
6060
E070
E070
E070
E070
E070
E070
6060
70E0
3FC0
1F80
ENDCHAR
STARTCHAR uni000F
ENCODING 15
SWIDTH 602 0
DWIDTH 12 0
BBX 10 11 1 0
BITMAP
0C00
0C00
0C00
0C00
FFC0
FFC0
0C00
0C00
0C00
0C00
0C00
ENDCHAR
STARTCHAR Aacute
ENCODING 193
SWIDTH 602 0
DWIDTH 12 0
BBX 12 18 0 0
BITMAP
0700
0E00
1C00
0000
0700
0F00
0F80
0F80
1B80
1B80
19C0
31C0
31C0
3FE0
7FE0
60E0
4070
C070
ENDCHAR
STARTCHAR Odieresis
ENCODING 214
SWIDTH 602 0
DWIDTH 12 0
BBX 12 17 0 0
BITMAP
1980
1980
0000
1F80
3FC0
70E0
6060
E070
E070
E070
E070
E070
E070
6060
70E0
3FC0
1F80
ENDCHAR
STARTCHAR Acircumflex
ENCODING 194
SWIDTH 602 0
DWIDTH 12 0
BBX 12 18 0 0
BITMAP
0600
0F00
1980
0000
0700
0F00
0F80
0F80
1B80
1B80
19C0
31C0
31C0
3FE0
7FE0
60E0
4070
C070
ENDCHAR
STARTCHAR uni001E
ENCODING 30
SWIDTH 602 0
DWIDTH 12 0
BBX 10 14 2 0
BITMAP
E000
E000
E000
E000
E000
E000
E000
E000
E000
E000
E000
E000
FFC0
FFC0
ENDCHAR
STARTCHAR multiply
ENCODING 215
SWIDTH 602 0
DWIDTH 12 0
BBX 10 11 1 0
BITMAP
4080
E1C0
7380
3F00
1E00
0C00
1E00
3B00
7380
E1C0
4080
ENDCHAR
STARTCHAR uni0012
ENCODING 18
SWIDTH 602 0
DWIDTH 12 0
BBX 10 2 1 4
BITMAP
FFC0
FFC0
ENDCHAR
STARTCHAR Adieresis
ENCODING 196
SWIDTH 602 0
DWIDTH 12 0
BBX 12 17 0 0
BITMAP
1980
1980
0000
0700
0F00
0F80
0F80
1B80
1B80
19C0
31C0
31C0
3FE0
7FE0
60E0
4070
C070
ENDCHAR
STARTCHAR space
ENCODING 32
SWIDTH 602 0
DWIDTH 12 0
BBX 1 1 0 0
BITMAP
00
ENDCHAR
STARTCHAR exclam
ENCODING 33
SWIDTH 602 0
DWIDTH 12 0
BBX 3 14 4 0
BITMAP
E0
E0
E0
E0
E0
E0
C0
C0
C0
C0
00
00
E0
E0
ENDCHAR
STARTCHAR ccedilla
ENCODING 231
SWIDTH 602 0
DWIDTH 12 0
BBX 10 15 1 -4
BITMAP
1FC0
3FC0
7840
E000
E000
E000
E000
F000
7800
3FC0
1FC0
0800
1E00
0600
1C00
ENDCHAR
STARTCHAR Uacute
ENCODING 218
SWIDTH 602 0
DWIDTH 12 0
BBX 10 18 1 0
BITMAP
0E00
1C00
3800
0000
E1C0
E1C0
E1C0
E1C0
E1C0
E1C0
E1C0
E1C0
E1C0
E1C0
E1C0
F3C0
7F80
3F00
ENDCHAR
STARTCHAR quotedbl
ENCODING 34
SWIDTH 602 0
DWIDTH 12 0
BBX 7 6 2 8
BITMAP
C6
C6
C6
C6
C6
C6
ENDCHAR
STARTCHAR Ccedilla
ENCODING 199
SWIDTH 602 0
DWIDTH 12 0
BBX 11 18 0 -4
BITMAP
0FE0
3FE0
7820
7000
E000
E000
E000
E000
E000
E000
7000
7820
3FE0
0FC0
0400
0F00
0300
0E00
ENDCHAR
STARTCHAR numbersign
ENCODING 35
SWIDTH 602 0
DWIDTH 12 0
BBX 11 14 0 0
BITMAP
0EC0
0CC0
0D80
7FE0
7FE0
1B80
1B00
3300
FFC0
FFC0
3600
7600
6600
6E00
ENDCHAR
STARTCHAR eacute
ENCODING 233
SWIDTH 602 0
DWIDTH 12 0
BBX 11 15 1 0
BITMAP
0700
0E00
1C00
0000
1F00
3FC0
70C0
E0E0
FFE0
FFE0
E000
F000
7820
3FE0
1FC0
ENDCHAR
STARTCHAR dollar
ENCODING 36
SWIDTH 602 0
DWIDTH 12 0
BBX 9 19 2 -3
BITMAP
0C00
0C00
3F00
7F00
E100
E000
F000
F800
7E00
1F00
0F80
0380
0380
8780
FF00
7F00
0C00
0C00
0C00
ENDCHAR
STARTCHAR two
ENCODING 50
SWIDTH 602 0
DWIDTH 12 0
BBX 9 14 1 0
BITMAP
7E00
FF00
8780
0380
0380
0380
0700
0E00
1C00
3800
7000
E000
FF80
FF80
ENDCHAR
STARTCHAR percent
ENCODING 37
SWIDTH 602 0
DWIDTH 12 0
BBX 13 14 0 0
BITMAP
7830
FC60
CCE0
CCC0
CD80
FF80
7B00
06F0
0FF8
0D98
1998
3998
31F8
60F0
ENDCHAR
STARTCHAR edieresis
ENCODING 235
SWIDTH 602 0
DWIDTH 12 0
BBX 11 14 1 0
BITMAP
3300
3300
0000
1F00
3FC0
70C0
E0E0
FFE0
FFE0
E000
F000
7820
3FE0
1FC0
ENDCHAR
STARTCHAR three
ENCODING 51
SWIDTH 602 0
DWIDTH 12 0
BBX 8 14 2 0
BITMAP
7C
FE
8F
07
07
0E
78
7E
0F
07
07
8F
FE
FC
ENDCHAR
STARTCHAR ampersand
ENCODING 38
SWIDTH 602 0
DWIDTH 12 0
BBX 12 14 0 0
BITMAP
1F00
3F80
3B80
3B80
3B80
1F00
3C70
7E70
EF70
E760
E7E0
F3C0
7FC0
3EF0
ENDCHAR
STARTCHAR four
ENCODING 52
SWIDTH 602 0
DWIDTH 12 0
BBX 10 14 1 0
BITMAP
0700
0F00
1F00
1F00
3700
7700
6700
FFC0
FFC0
FFC0
0700
0700
0700
0700
ENDCHAR
STARTCHAR quotesingle
ENCODING 39
SWIDTH 602 0
DWIDTH 12 0
BBX 3 5 4 9
BITMAP
E0
E0
E0
E0
C0
ENDCHAR
STARTCHAR uacute
ENCODING 250
SWIDTH 602 0
DWIDTH 12 0
BBX 9 15 1 0
BITMAP
0E00
1C00
3800
0000
E380
E380
E380
E380
E380
E380
E380
E780
FF80
FF80
7B80
ENDCHAR
STARTCHAR iacute
ENCODING 237
SWIDTH 602 0
DWIDTH 12 0
BBX 7 15 2 0
BITMAP
0E
1C
38
00
FE
FE
0E
0E
0E
0E
0E
0E
0E
0E
0E
ENDCHAR
STARTCHAR caron
ENCODING 711
SWIDTH 602 0
DWIDTH 12 0
BBX 6 3 3 11
BITMAP
CC
78
30
ENDCHAR
STARTCHAR five
ENCODING 53
SWIDTH 602 0
DWIDTH 12 0
BBX 8 14 2 0
BITMAP
FF
FF
E0
C0
C0
F0
FC
1E
07
07
07
8F
FE
F8
ENDCHAR
STARTCHAR icircumflex
ENCODING 238
SWIDTH 602 0
DWIDTH 12 0
BBX 7 15 2 0
BITMAP
18
3C
66
00
FE
FE
0E
0E
0E
0E
0E
0E
0E
0E
0E
ENDCHAR
STARTCHAR six
ENCODING 54
SWIDTH 602 0
DWIDTH 12 0
BBX 10 14 1 0
BITMAP
0F80
3F80
7880
7000
E000
EF00
FF80
F3C0
E1C0
E1C0
61C0
73C0
3F80
1F00
ENDCHAR
STARTCHAR udieresis
ENCODING 252
SWIDTH 602 0
DWIDTH 12 0
BBX 9 14 1 0
BITMAP
3300
3300
0000
E380
E380
E380
E380
E380
E380
E380
E780
FF80
FF80
7B80
ENDCHAR
STARTCHAR seven
ENCODING 55
SWIDTH 602 0
DWIDTH 12 0
BBX 9 14 2 0
BITMAP
FF80
FF80
0380
0700
0700
0E00
0C00
1C00
1800
3800
3000
7000
7000
7000
ENDCHAR
STARTCHAR yacute
ENCODING 253
SWIDTH 602 0
DWIDTH 12 0
BBX 11 19 1 -4
BITMAP
0700
0E00
1C00
0000
E060
70C0
70C0
79C0
3980
3D80
1F00
1F00
0E00
0E00
0E00
0C00
0C00
7800
7000
ENDCHAR
STARTCHAR eight
ENCODING 56
SWIDTH 602 0
DWIDTH 12 0
BBX 10 14 1 0
BITMAP
1E00
3F80
7380
7380
7B80
3F00
1E00
7F80
E3C0
E1C0
E1C0
F1C0
7F80
3F00
ENDCHAR
STARTCHAR F
ENCODING 70
SWIDTH 602 0
DWIDTH 12 0
BBX 10 14 2 0
BITMAP
FFC0
FFC0
E000
E000
E000
E000
FF80
FF80
E000
E000
E000
E000
E000
E000
ENDCHAR
STARTCHAR uni0002
ENCODING 2
SWIDTH 602 0
DWIDTH 12 0
BBX 11 14 0 0
BITMAP
0EC0
0CC0
0D80
7FE0
7FE0
1B80
1B00
3300
FFC0
FFC0
3600
7600
6600
6E00
ENDCHAR
STARTCHAR nine
ENCODING 57
SWIDTH 602 0
DWIDTH 12 0
BBX 10 14 1 0
BITMAP
3E00
7F00
F380
E180
E1C0
E1C0
F3C0
7FC0
3DC0
01C0
0380
4780
7F00
7C00
ENDCHAR
STARTCHAR uni0003
ENCODING 3
SWIDTH 602 0
DWIDTH 12 0
BBX 9 14 1 0
BITMAP
FF80
FF80
1C00
1C00
1C00
1C00
1C00
1C00
1C00
1C00
1C00
1C00
FF80
FF80
ENDCHAR
STARTCHAR G
ENCODING 71
SWIDTH 602 0
DWIDTH 12 0
BBX 11 14 0 0
BITMAP
0FE0
3FE0
7820
7000
E000
E000
E000
E0E0
E0E0
E0E0
70E0
78E0
3FE0
0FC0
ENDCHAR
STARTCHAR colon
ENCODING 58
SWIDTH 602 0
DWIDTH 12 0
BBX 3 11 4 0
BITMAP
E0
E0
E0
00
00
00
00
00
E0
E0
E0
ENDCHAR
STARTCHAR uni0004
ENCODING 4
SWIDTH 602 0
DWIDTH 12 0
BBX 10 14 2 0
BITMAP
E000
E000
E000
E000
E000
E000
E000
E000
E000
E000
E000
E000
FFC0
FFC0
ENDCHAR
STARTCHAR H
ENCODING 72
SWIDTH 602 0
DWIDTH 12 0
BBX 10 14 1 0
BITMAP
E1C0
E1C0
E1C0
E1C0
E1C0
E1C0
FFC0
FFC0
E1C0
E1C0
E1C0
E1C0
E1C0
E1C0
ENDCHAR
STARTCHAR semicolon
ENCODING 59
SWIDTH 602 0
DWIDTH 12 0
BBX 3 14 4 -3
BITMAP
E0
E0
E0
00
00
00
00
E0
E0
E0
E0
60
E0
C0
ENDCHAR
STARTCHAR Dcaron
ENCODING 270
SWIDTH 602 0
DWIDTH 12 0
BBX 11 18 1 0
BITMAP
3300
1E00
0C00
0000
FF00
FFC0
E3C0
E1E0
E0E0
E0E0
E0E0
E0E0
E0E0
E0E0
E1C0
E3C0
FF80
FE00
ENDCHAR
STARTCHAR ogonek
ENCODING 731
SWIDTH 602 0
DWIDTH 12 0
BBX 3 4 4 -4
BITMAP
60
C0
C0
E0
ENDCHAR
STARTCHAR uni0005
ENCODING 5
SWIDTH 602 0
DWIDTH 12 0
BBX 11 14 1 0
BITMAP
F1E0
F1E0
F1E0
F3E0
F3E0
FBE0
DBE0
DBE0
DEE0
DEE0
CEE0
CEE0
CCE0
C0E0
ENDCHAR
STARTCHAR I
ENCODING 73
SWIDTH 602 0
DWIDTH 12 0
BBX 9 14 1 0
BITMAP
FF80
FF80
1C00
1C00
1C00
1C00
1C00
1C00
1C00
1C00
1C00
1C00
FF80
FF80
ENDCHAR
STARTCHAR dcaron
ENCODING 271
SWIDTH 602 0
DWIDTH 12 0
BBX 13 14 1 0
BITMAP
01D8
01D8
01D8
3DD8
7FD0
73C0
E1C0
E1C0
E1C0
E1C0
F3C0
FFC0
7FC0
3DC0
ENDCHAR
STARTCHAR Abreve
ENCODING 258
SWIDTH 602 0
DWIDTH 12 0
BBX 12 18 0 0
BITMAP
0CC0
0FC0
0780
0000
0700
0F00
0F80
0F80
1B80
1B80
19C0
31C0
31C0
3FE0
7FE0
60E0
4070
C070
ENDCHAR
STARTCHAR uni0006
ENCODING 6
SWIDTH 602 0
DWIDTH 12 0
BBX 9 14 1 0
BITMAP
7F80
7F80
0380
0380
0380
0380
0380
0380
0380
0380
0380
8780
FF00
FE00
ENDCHAR
STARTCHAR J
ENCODING 74
SWIDTH 602 0
DWIDTH 12 0
BBX 9 14 1 0
BITMAP
7F80
7F80
0380
0380
0380
0380
0380
0380
0380
0380
0380
8780
FF00
FE00
ENDCHAR
STARTCHAR abreve
ENCODING 259
SWIDTH 602 0
DWIDTH 12 0
BBX 11 15 1 0
BITMAP
3300
3F00
1E00
0000
3F00
7F80
43C0
01C0
3FC0
7FC0
E1C0
E1C0
E3C0
7FE0
3CE0
ENDCHAR
STARTCHAR Dcroat
ENCODING 272
SWIDTH 602 0
DWIDTH 12 0
BBX 12 14 0 0
BITMAP
7F80
7FE0
71E0
70F0
7070
7070
FE70
FE70
7070
7070
70E0
71E0
7FC0
7F00
ENDCHAR
STARTCHAR hungarumlaut
ENCODING 733
SWIDTH 602 0
DWIDTH 12 0
BBX 7 3 2 11
BITMAP
76
6C
D8
ENDCHAR
STARTCHAR uni0007
ENCODING 7
SWIDTH 602 0
DWIDTH 12 0
BBX 3 3 4 11
BITMAP
E0
A0
E0
ENDCHAR
STARTCHAR K
ENCODING 75
SWIDTH 602 0
DWIDTH 12 0
BBX 11 14 1 0
BITMAP
E0E0
E1C0
E380
E700
E600
EC00
FC00
FE00
EE00
EF00
E780
E380
E3C0
E1E0
ENDCHAR
STARTCHAR dcroat
ENCODING 273
SWIDTH 602 0
DWIDTH 12 0
BBX 11 14 1 0
BITMAP
01C0
1FE0
1FE0
3DC0
7FC0
73C0
E1C0
E1C0
E1C0
E1C0
F3C0
FFC0
7FC0
3DC0
ENDCHAR
STARTCHAR L
ENCODING 76
SWIDTH 602 0
DWIDTH 12 0
BBX 10 14 2 0
BITMAP
E000
E000
E000
E000
E000
E000
E000
E000
E000
E000
E000
E000
FFC0
FFC0
ENDCHAR
STARTCHAR Z
ENCODING 90
SWIDTH 602 0
DWIDTH 12 0
BBX 10 14 1 0
BITMAP
FFC0
FFC0
03C0
0380
0700
0F00
0E00
1C00
3C00
3800
7800
F000
FFC0
FFC0
ENDCHAR
STARTCHAR M
ENCODING 77
SWIDTH 602 0
DWIDTH 12 0
BBX 11 14 1 0
BITMAP
F1E0
F1E0
F1E0
F3E0
F3E0
FBE0
DBE0
DBE0
DEE0
DEE0
CEE0
CEE0
CCE0
C0E0
ENDCHAR
STARTCHAR bracketleft
ENCODING 91
SWIDTH 602 0
DWIDTH 12 0
BBX 8 17 3 -3
BITMAP
FF
FF
E0
E0
E0
E0
E0
E0
E0
E0
E0
E0
E0
E0
E0
FF
FF
ENDCHAR
STARTCHAR N
ENCODING 78
SWIDTH 602 0
DWIDTH 12 0
BBX 10 14 1 0
BITMAP
E0C0
F0C0
F0C0
F8C0
F8C0
DCC0
DEC0
CEC0
CFC0
C7C0
C7C0
C3C0
C3C0
C1C0
ENDCHAR
STARTCHAR backslash
ENCODING 92
SWIDTH 602 0
DWIDTH 12 0
BBX 12 17 0 -3
BITMAP
E000
6000
3000
3000
1800
1800
0C00
0E00
0600
0700
0300
0180
0180
00C0
00C0
0060
0070
ENDCHAR
STARTCHAR O
ENCODING 79
SWIDTH 602 0
DWIDTH 12 0
BBX 12 14 0 0
BITMAP
1F80
3FC0
70E0
6060
E070
E070
E070
E070
E070
E070
6060
70E0
3FC0
1F80
ENDCHAR
STARTCHAR bracketright
ENCODING 93
SWIDTH 602 0
DWIDTH 12 0
BBX 8 17 1 -3
BITMAP
FF
FF
07
07
07
07
07
07
07
07
07
07
07
07
07
FF
FF
ENDCHAR
STARTCHAR asciicircum
ENCODING 94
SWIDTH 602 0
DWIDTH 12 0
BBX 10 12 1 2
BITMAP
0400
0C00
0C00
0C00
1E00
1E00
3300
3300
3300
6180
6180
C0C0
ENDCHAR
STARTCHAR underscore
ENCODING 95
SWIDTH 602 0
DWIDTH 12 0
BBX 12 2 0 -3
BITMAP
FFF0
FFF0
ENDCHAR
STARTCHAR Lacute
ENCODING 313
SWIDTH 602 0
DWIDTH 12 0
BBX 10 18 2 0
BITMAP
1C00
3800
7000
0000
E000
E000
E000
E000
E000
E000
E000
E000
E000
E000
E000
E000
FFC0
FFC0
ENDCHAR
STARTCHAR grave
ENCODING 96
SWIDTH 602 0
DWIDTH 12 0
BBX 3 5 4 9
BITMAP
60
E0
E0
E0
E0
ENDCHAR
STARTCHAR lacute
ENCODING 314
SWIDTH 602 0
DWIDTH 12 0
BBX 7 18 1 0
BITMAP
0E
1C
38
00
FE
FE
0E
0E
0E
0E
0E
0E
0E
0E
0E
0E
0E
0E
ENDCHAR
STARTCHAR d
ENCODING 100
SWIDTH 602 0
DWIDTH 12 0
BBX 10 14 1 0
BITMAP
01C0
01C0
01C0
3DC0
7FC0
73C0
E1C0
E1C0
E1C0
E1C0
F3C0
FFC0
7FC0
3DC0
ENDCHAR
STARTCHAR a
ENCODING 97
SWIDTH 602 0
DWIDTH 12 0
BBX 11 11 1 0
BITMAP
3F00
7F80
43C0
01C0
3FC0
7FC0
E1C0
E1C0
E3C0
7FE0
3CE0
ENDCHAR
STARTCHAR e
ENCODING 101
SWIDTH 602 0
DWIDTH 12 0
BBX 11 11 1 0
BITMAP
1F00
3FC0
70C0
E0E0
FFE0
FFE0
E000
F000
7820
3FE0
1FC0
ENDCHAR
STARTCHAR b
ENCODING 98
SWIDTH 602 0
DWIDTH 12 0
BBX 10 14 1 0
BITMAP
E000
E000
E000
E700
EF80
FFC0
F3C0
E1C0
E1C0
E1C0
E1C0
F380
FF80
FF00
ENDCHAR
STARTCHAR f
ENCODING 102
SWIDTH 602 0
DWIDTH 12 0
BBX 10 14 2 0
BITMAP
1FC0
3FC0
3840
FF80
FF80
3800
3800
3800
3800
3800
3800
3800
3800
3800
ENDCHAR
STARTCHAR c
ENCODING 99
SWIDTH 602 0
DWIDTH 12 0
BBX 10 11 1 0
BITMAP
1FC0
3FC0
7840
E000
E000
E000
E000
F000
7800
3FC0
1FC0
ENDCHAR
STARTCHAR Lcaron
ENCODING 317
SWIDTH 602 0
DWIDTH 12 0
BBX 10 14 2 0
BITMAP
E600
E600
E600
E600
E400
E000
E000
E000
E000
E000
E000
E000
FFC0
FFC0
ENDCHAR
STARTCHAR g
ENCODING 103
SWIDTH 602 0
DWIDTH 12 0
BBX 10 15 1 -4
BITMAP
3CC0
7FC0
73C0
E1C0
E1C0
E1C0
E1C0
F3C0
7FC0
7DC0
3DC0
01C0
4380
7F80
3E00
ENDCHAR
STARTCHAR lcaron
ENCODING 318
SWIDTH 602 0
DWIDTH 12 0
BBX 11 14 1 0
BITMAP
FE60
FE60
0E60
0E60
0E40
0E00
0E00
0E00
0E00
0E00
0E00
0E00
0E00
0E00
ENDCHAR
STARTCHAR h
ENCODING 104
SWIDTH 602 0
DWIDTH 12 0
BBX 9 14 2 0
BITMAP
E000
E000
E000
E700
EF80
FF80
F380
E380
E380
E380
E380
E380
E380
E380
ENDCHAR
STARTCHAR i
ENCODING 105
SWIDTH 602 0
DWIDTH 12 0
BBX 7 14 2 0
BITMAP
0E
0E
0E
FE
FE
0E
0E
0E
0E
0E
0E
0E
0E
0E
ENDCHAR
STARTCHAR j
ENCODING 106
SWIDTH 602 0
DWIDTH 12 0
BBX 8 18 1 -4
BITMAP
07
07
07
7F
7F
07
07
07
07
07
07
07
07
07
07
87
FE
FC
ENDCHAR
STARTCHAR x
ENCODING 120
SWIDTH 602 0
DWIDTH 12 0
BBX 11 11 1 0
BITMAP
F0E0
79C0
3B80
3F00
1E00
0E00
1F00
3F80
3380
63C0
E1E0
ENDCHAR
STARTCHAR k
ENCODING 107
SWIDTH 602 0
DWIDTH 12 0
BBX 10 14 2 0
BITMAP
E000
E000
E000
E380
E300
E600
EE00
EC00
FE00
EE00
EF00
E780
E380
E3C0
ENDCHAR
STARTCHAR y
ENCODING 121
SWIDTH 602 0
DWIDTH 12 0
BBX 11 15 1 -4
BITMAP
E060
70C0
70C0
79C0
3980
3D80
1F00
1F00
0E00
0E00
0E00
0C00
0C00
7800
7000
ENDCHAR
STARTCHAR l
ENCODING 108
SWIDTH 602 0
DWIDTH 12 0
BBX 7 14 1 0
BITMAP
FE
FE
0E
0E
0E
0E
0E
0E
0E
0E
0E
0E
0E
0E
ENDCHAR
STARTCHAR Ohungarumlaut
ENCODING 336
SWIDTH 602 0
DWIDTH 12 0
BBX 12 18 0 0
BITMAP
0760
06C0
0D80
0000
1F80
3FC0
70E0
6060
E070
E070
E070
E070
E070
E070
6060
70E0
3FC0
1F80
ENDCHAR
STARTCHAR z
ENCODING 122
SWIDTH 602 0
DWIDTH 12 0
BBX 10 11 1 0
BITMAP
FFC0
FFC0
03C0
0780
0F00
1E00
3C00
7800
F000
FFC0
FFC0
ENDCHAR
STARTCHAR m
ENCODING 109
SWIDTH 602 0
DWIDTH 12 0
BBX 11 11 0 0
BITMAP
ECC0
FFE0
FFE0
EEE0
EEE0
EEE0
EEE0
EEE0
EEE0
EEE0
EEE0
ENDCHAR
STARTCHAR ohungarumlaut
ENCODING 337
SWIDTH 602 0
DWIDTH 12 0
BBX 11 15 0 0
BITMAP
0EC0
0D80
1B00
0000
1F00
7FC0
71C0
E0E0
E0E0
E0E0
E0E0
E0E0
71C0
3FC0
1F00
ENDCHAR
STARTCHAR Scommaaccent
ENCODING 350
SWIDTH 602 0
DWIDTH 12 0
BBX 10 18 1 -4
BITMAP
3F80
7F80
E080
E000
F000
FC00
3F00
1F80
07C0
01C0
01C0
83C0
FF80
FE00
1000
3C00
0C00
3800
ENDCHAR
STARTCHAR braceleft
ENCODING 123
SWIDTH 602 0
DWIDTH 12 0
BBX 9 17 2 -3
BITMAP
0F80
1F80
1C00
1C00
0E00
0E00
0E00
0C00
F000
FC00
0E00
0E00
0E00
1C00
1C00
1F80
0F80
ENDCHAR
STARTCHAR scommaaccent
ENCODING 351
SWIDTH 602 0
DWIDTH 12 0
BBX 9 15 2 -4
BITMAP
3F00
7F00
E100
F000
FC00
7F00
1F80
0380
8380
FF00
7E00
0800
1E00
0600
1C00
ENDCHAR
STARTCHAR bar
ENCODING 124
SWIDTH 602 0
DWIDTH 12 0
BBX 2 17 5 -3
BITMAP
C0
C0
C0
C0
C0
C0
C0
C0
C0
C0
C0
C0
C0
C0
C0
C0
C0
ENDCHAR
STARTCHAR Scaron
ENCODING 352
SWIDTH 602 0
DWIDTH 12 0
BBX 10 18 1 0
BITMAP
1980
0F00
0600
0000
3F80
7F80
E080
E000
F000
FC00
3F00
1F80
07C0
01C0
01C0
83C0
FF80
FE00
ENDCHAR
STARTCHAR braceright
ENCODING 125
SWIDTH 602 0
DWIDTH 12 0
BBX 9 17 1 -3
BITMAP
F800
FC00
1C00
1C00
3C00
3800
3800
1800
0780
1F80
3800
3800
3800
1C00
1C00
FC00
F800
ENDCHAR
STARTCHAR scaron
ENCODING 353
SWIDTH 602 0
DWIDTH 12 0
BBX 9 15 2 0
BITMAP
3300
1E00
0C00
0000
3F00
7F00
E100
F000
FC00
7F00
1F80
0380
8380
FF00
7E00
ENDCHAR
STARTCHAR asciitilde
ENCODING 126
SWIDTH 602 0
DWIDTH 12 0
BBX 10 5 1 3
BITMAP
70C0
78C0
DEC0
C780
C380
ENDCHAR
STARTCHAR Tcommaaccent
ENCODING 354
SWIDTH 602 0
DWIDTH 12 0
BBX 11 18 1 -4
BITMAP
FFE0
FFE0
0E00
0E00
0E00
0E00
0E00
0E00
0E00
0E00
0E00
0E00
0E00
0E00
0400
0F00
0300
0E00
ENDCHAR
STARTCHAR tcommaaccent
ENCODING 355
SWIDTH 602 0
DWIDTH 12 0
BBX 9 17 2 -4
BITMAP
3800
3800
FF80
FF80
3800
3800
3800
3800
3800
3800
3800
1F80
0F80
0200
0780
0180
0700
ENDCHAR
STARTCHAR Tcaron
ENCODING 356
SWIDTH 602 0
DWIDTH 12 0
BBX 11 18 1 0
BITMAP
1980
0F00
0600
0000
FFE0
FFE0
0E00
0E00
0E00
0E00
0E00
0E00
0E00
0E00
0E00
0E00
0E00
0E00
ENDCHAR
STARTCHAR tcaron
ENCODING 357
SWIDTH 602 0
DWIDTH 12 0
BBX 9 16 2 0
BITMAP
0180
0180
0180
3980
3900
FF80
FF80
3800
3800
3800
3800
3800
3800
3800
1F80
0F80
ENDCHAR
STARTCHAR Zacute
ENCODING 377
SWIDTH 602 0
DWIDTH 12 0
BBX 10 18 1 0
BITMAP
0380
0700
0E00
0000
FFC0
FFC0
03C0
0380
0700
0F00
0E00
1C00
3C00
3800
7800
F000
FFC0
FFC0
ENDCHAR
STARTCHAR zacute
ENCODING 378
SWIDTH 602 0
DWIDTH 12 0
BBX 10 15 1 0
BITMAP
0380
0700
0E00
0000
FFC0
FFC0
03C0
0780
0F00
1E00
3C00
7800
F000
FFC0
FFC0
ENDCHAR
STARTCHAR currency
ENCODING 164
SWIDTH 602 0
DWIDTH 12 0
BBX 11 11 1 2
BITMAP
4040
FFE0
7FC0
71C0
60C0
60C0
60C0
71C0
7FC0
FFE0
4040
ENDCHAR
STARTCHAR Zdotaccent
ENCODING 379
SWIDTH 602 0
DWIDTH 12 0
BBX 10 17 1 0
BITMAP
0C00
0C00
0000
FFC0
FFC0
03C0
0380
0700
0F00
0E00
1C00
3C00
3800
7800
F000
FFC0
FFC0
ENDCHAR
STARTCHAR acute
ENCODING 180
SWIDTH 602 0
DWIDTH 12 0
BBX 5 3 3 11
BITMAP
38
70
E0
ENDCHAR
STARTCHAR section
ENCODING 167
SWIDTH 602 0
DWIDTH 12 0
BBX 8 18 2 -4
BITMAP
3E
7E
E2
E0
F0
78
7E
C7
C3
E3
FB
7E
3E
0F
07
87
FE
FC
ENDCHAR
STARTCHAR Eacute
ENCODING 201
SWIDTH 602 0
DWIDTH 12 0
BBX 10 18 1 0
BITMAP
0E00
1C00
3800
0000
FF80
FF80
E000
E000
E000
E000
FF00
FF00
E000
E000
E000
E000
FFC0
FFC0
ENDCHAR
STARTCHAR dieresis
ENCODING 168
SWIDTH 602 0
DWIDTH 12 0
BBX 6 2 3 12
BITMAP
CC
CC
ENDCHAR
STARTCHAR Edieresis
ENCODING 203
SWIDTH 602 0
DWIDTH 12 0
BBX 10 17 1 0
BITMAP
3300
3300
0000
FF80
FF80
E000
E000
E000
E000
FF00
FF00
E000
E000
E000
E000
FFC0
FFC0
ENDCHAR
STARTCHAR cedilla
ENCODING 184
SWIDTH 602 0
DWIDTH 12 0
BBX 4 5 4 -4
BITMAP
60
40
F0
30
E0
ENDCHAR
STARTCHAR Iacute
ENCODING 205
SWIDTH 602 0
DWIDTH 12 0
BBX 9 18 1 0
BITMAP
0E00
1C00
3800
0000
FF80
FF80
1C00
1C00
1C00
1C00
1C00
1C00
1C00
1C00
1C00
1C00
FF80
FF80
ENDCHAR
STARTCHAR uni0015
ENCODING 21
SWIDTH 602 0
DWIDTH 12 0
BBX 10 11 1 0
BITMAP
0C00
0C00
0C00
0C00
FFC0
FFC0
0C00
0C00
0C00
0C00
0C00
ENDCHAR
STARTCHAR Icircumflex
ENCODING 206
SWIDTH 602 0
DWIDTH 12 0
BBX 9 18 1 0
BITMAP
1800
3C00
6600
0000
FF80
FF80
1C00
1C00
1C00
1C00
1C00
1C00
1C00
1C00
1C00
1C00
FF80
FF80
ENDCHAR
STARTCHAR uni0016
ENCODING 22
SWIDTH 602 0
DWIDTH 12 0
BBX 10 11 1 0
BITMAP
0C00
0C00
0C00
0C00
FFC0
FFC0
0C00
0C00
0C00
0C00
0C00
ENDCHAR
STARTCHAR Udieresis
ENCODING 220
SWIDTH 602 0
DWIDTH 12 0
BBX 10 17 1 0
BITMAP
3300
3300
0000
E1C0
E1C0
E1C0
E1C0
E1C0
E1C0
E1C0
E1C0
E1C0
E1C0
E1C0
F3C0
7F80
3F00
ENDCHAR
STARTCHAR uni0017
ENCODING 23
SWIDTH 602 0
DWIDTH 12 0
BBX 10 11 1 0
BITMAP
0C00
0C00
0C00
0C00
FFC0
FFC0
0C00
0C00
0C00
0C00
0C00
ENDCHAR
STARTCHAR Yacute
ENCODING 221
SWIDTH 602 0
DWIDTH 12 0
BBX 12 18 0 0
BITMAP
0700
0E00
1C00
0000
E070
7060
78E0
38C0
3D80
1F80
1F00
0F00
0E00
0E00
0E00
0E00
0E00
0E00
ENDCHAR
STARTCHAR uni0018
ENCODING 24
SWIDTH 602 0
DWIDTH 12 0
BBX 10 11 1 0
BITMAP
0C00
0C00
0C00
0C00
FFC0
FFC0
0C00
0C00
0C00
0C00
0C00
ENDCHAR
STARTCHAR uni0019
ENCODING 25
SWIDTH 602 0
DWIDTH 12 0
BBX 2 17 5 -3
BITMAP
C0
C0
C0
C0
C0
C0
C0
C0
C0
C0
C0
C0
C0
C0
C0
C0
C0
ENDCHAR
STARTCHAR uni2010
ENCODING 8208
SWIDTH 602 0
DWIDTH 12 0
BBX 10 2 1 4
BITMAP
FFC0
FFC0
ENDCHAR
STARTCHAR germandbls
ENCODING 223
SWIDTH 602 0
DWIDTH 12 0
BBX 11 14 1 0
BITMAP
3F00
7F80
E380
E380
E300
E600
EF00
E780
E7C0
E1E0
E0E0
E8E0
EFE0
EF80
ENDCHAR
STARTCHAR uni001A
ENCODING 26
SWIDTH 602 0
DWIDTH 12 0
BBX 10 11 1 0
BITMAP
0040
00C0
03C0
0F00
3C00
F000
3C00
0F00
03C0
00C0
0040
ENDCHAR
STARTCHAR uni001B
ENCODING 27
SWIDTH 602 0
DWIDTH 12 0
BBX 10 11 1 0
BITMAP
8000
C000
F000
3C00
0F00
03C0
0F00
3C00
F000
C000
8000
ENDCHAR
STARTCHAR parenleft
ENCODING 40
SWIDTH 602 0
DWIDTH 12 0
BBX 8 17 3 -3
BITMAP
07
1F
3C
78
70
F0
E0
E0
E0
E0
E0
60
70
38
1C
0F
03
ENDCHAR
STARTCHAR aacute
ENCODING 225
SWIDTH 602 0
DWIDTH 12 0
BBX 11 15 1 0
BITMAP
0700
0E00
1C00
0000
3F00
7F80
43C0
01C0
3FC0
7FC0
E1C0
E1C0
E3C0
7FE0
3CE0
ENDCHAR
STARTCHAR uni001C
ENCODING 28
SWIDTH 602 0
DWIDTH 12 0
BBX 10 15 1 -4
BITMAP
EF00
EF80
FFC0
F3C0
E1C0
E1C0
E1C0
E1C0
F380
FF80
EF00
E000
E000
E000
E000
ENDCHAR
STARTCHAR parenright
ENCODING 41
SWIDTH 602 0
DWIDTH 12 0
BBX 8 17 1 -3
BITMAP
C0
F0
3C
1C
0E
0E
07
07
07
07
07
0F
0E
1E
3C
F0
C0
ENDCHAR
STARTCHAR acircumflex
ENCODING 226
SWIDTH 602 0
DWIDTH 12 0
BBX 11 15 1 0
BITMAP
0C00
1E00
3300
0000
3F00
7F80
43C0
01C0
3FC0
7FC0
E1C0
E1C0
E3C0
7FE0
3CE0
ENDCHAR
STARTCHAR asterisk
ENCODING 42
SWIDTH 602 0
DWIDTH 12 0
BBX 9 9 1 5
BITMAP
1C00
0800
4900
E780
F380
1400
3600
7700
2200
ENDCHAR
STARTCHAR plus
ENCODING 43
SWIDTH 602 0
DWIDTH 12 0
BBX 10 11 1 0
BITMAP
0C00
0C00
0C00
0C00
FFC0
FFC0
0C00
0C00
0C00
0C00
0C00
ENDCHAR
STARTCHAR adieresis
ENCODING 228
SWIDTH 602 0
DWIDTH 12 0
BBX 11 14 1 0
BITMAP
3300
3300
0000
3F00
7F80
43C0
01C0
3FC0
7FC0
E1C0
E1C0
E3C0
7FE0
3CE0
ENDCHAR
STARTCHAR comma
ENCODING 44
SWIDTH 602 0
DWIDTH 12 0
BBX 3 7 4 -3
BITMAP
E0
E0
E0
E0
60
E0
C0
ENDCHAR
STARTCHAR hyphen
ENCODING 45
SWIDTH 602 0
DWIDTH 12 0
BBX 10 2 1 4
BITMAP
FFC0
FFC0
ENDCHAR
STARTCHAR oacute
ENCODING 243
SWIDTH 602 0
DWIDTH 12 0
BBX 11 15 0 0
BITMAP
0700
0E00
1C00
0000
1F00
7FC0
71C0
E0E0
E0E0
E0E0
E0E0
E0E0
71C0
3FC0
1F00
ENDCHAR
STARTCHAR period
ENCODING 46
SWIDTH 602 0
DWIDTH 12 0
BBX 3 3 4 0
BITMAP
E0
E0
E0
ENDCHAR
STARTCHAR ocircumflex
ENCODING 244
SWIDTH 602 0
DWIDTH 12 0
BBX 11 15 0 0
BITMAP
0600
0F00
1980
0000
1F00
7FC0
71C0
E0E0
E0E0
E0E0
E0E0
E0E0
71C0
3FC0
1F00
ENDCHAR
STARTCHAR less
ENCODING 60
SWIDTH 602 0
DWIDTH 12 0
BBX 10 11 1 0
BITMAP
0040
00C0
03C0
0F00
3C00
F000
3C00
0F00
03C0
00C0
0040
ENDCHAR
STARTCHAR slash
ENCODING 47
SWIDTH 602 0
DWIDTH 12 0
BBX 12 17 0 -3
BITMAP
0070
0060
00E0
00C0
0180
0380
0300
0700
0600
0E00
0C00
1800
1800
3000
7000
6000
E000
ENDCHAR
STARTCHAR equal
ENCODING 61
SWIDTH 602 0
DWIDTH 12 0
BBX 10 7 1 2
BITMAP
FFC0
FFC0
0000
0000
0000
FFC0
FFC0
ENDCHAR
STARTCHAR zero
ENCODING 48
SWIDTH 602 0
DWIDTH 12 0
BBX 11 14 0 0
BITMAP
1F00
3F80
71C0
60C0
E0E0
E0E0
E0E0
E0E0
E0E0
E0E0
60C0
71C0
3F80
1F00
ENDCHAR
STARTCHAR odieresis
ENCODING 246
SWIDTH 602 0
DWIDTH 12 0
BBX 11 14 0 0
BITMAP
1980
1980
0000
1F00
7FC0
71C0
E0E0
E0E0
E0E0
E0E0
E0E0
71C0
3FC0
1F00
ENDCHAR
STARTCHAR greater
ENCODING 62
SWIDTH 602 0
DWIDTH 12 0
BBX 10 11 1 0
BITMAP
8000
C000
F000
3C00
0F00
03C0
0F00
3C00
F000
C000
8000
ENDCHAR
STARTCHAR one
ENCODING 49
SWIDTH 602 0
DWIDTH 12 0
BBX 9 14 2 0
BITMAP
FC00
FC00
1C00
1C00
1C00
1C00
1C00
1C00
1C00
1C00
1C00
1C00
FF80
FF80
ENDCHAR
STARTCHAR divide
ENCODING 247
SWIDTH 602 0
DWIDTH 12 0
BBX 11 11 0 0
BITMAP
0E00
0E00
0E00
0000
FFE0
FFE0
0000
0000
0E00
0E00
0E00
ENDCHAR
STARTCHAR Aogonek
ENCODING 260
SWIDTH 602 0
DWIDTH 12 0
BBX 12 18 0 -4
BITMAP
0700
0F00
0F80
0F80
1B80
1B80
19C0
31C0
31C0
3FE0
7FE0
60E0
4070
C070
0030
0060
0060
0070
ENDCHAR
STARTCHAR question
ENCODING 63
SWIDTH 602 0
DWIDTH 12 0
BBX 10 14 1 0
BITMAP
7F00
FF80
C3C0
C1C0
01C0
0380
0F00
1C00
3800
3800
0000
0000
3800
3800
ENDCHAR
STARTCHAR aogonek
ENCODING 261
SWIDTH 602 0
DWIDTH 12 0
BBX 11 15 1 -4
BITMAP
3F00
7F80
43C0
01C0
3FC0
7FC0
E1C0
E1C0
E3C0
7FE0
3CE0
0060
00C0
00C0
00E0
ENDCHAR
STARTCHAR at
ENCODING 64
SWIDTH 602 0
DWIDTH 12 0
BBX 11 14 1 0
BITMAP
0F00
3F80
71C0
67C0
EFC0
DCC0
D8C0
D9C0
D9C0
DFE0
EEE0
7100
3F00
1E00
ENDCHAR
STARTCHAR Cacute
ENCODING 262
SWIDTH 602 0
DWIDTH 12 0
BBX 11 18 0 0
BITMAP
01C0
0380
0700
0000
0FE0
3FE0
7820
7000
E000
E000
E000
E000
E000
E000
7000
7820
3FE0
0FC0
ENDCHAR
STARTCHAR A
ENCODING 65
SWIDTH 602 0
DWIDTH 12 0
BBX 12 14 0 0
BITMAP
0700
0F00
0F80
0F80
1B80
1B80
19C0
31C0
31C0
3FE0
7FE0
60E0
4070
C070
ENDCHAR
STARTCHAR cacute
ENCODING 263
SWIDTH 602 0
DWIDTH 12 0
BBX 10 15 1 0
BITMAP
01C0
0380
0700
0000
1FC0
3FC0
7840
E000
E000
E000
E000
F000
7800
3FC0
1FC0
ENDCHAR
STARTCHAR B
ENCODING 66
SWIDTH 602 0
DWIDTH 12 0
BBX 10 14 1 0
BITMAP
FF00
FF80
E380
E380
E380
E700
FE00
FF80
E3C0
E1C0
E1C0
E3C0
FF80
FF00
ENDCHAR
STARTCHAR P
ENCODING 80
SWIDTH 602 0
DWIDTH 12 0
BBX 10 14 1 0
BITMAP
FF00
FF80
E1C0
E1C0
E1C0
E1C0
E3C0
FF80
FF00
E000
E000
E000
E000
E000
ENDCHAR
STARTCHAR C
ENCODING 67
SWIDTH 602 0
DWIDTH 12 0
BBX 11 14 0 0
BITMAP
0FE0
3FE0
7820
7000
E000
E000
E000
E000
E000
E000
7000
7820
3FE0
0FC0
ENDCHAR
STARTCHAR Q
ENCODING 81
SWIDTH 602 0
DWIDTH 12 0
BBX 13 17 0 -3
BITMAP
1F80
3FC0
70E0
6060
E070
E070
E070
E070
E070
E070
6070
70E0
3FC0
0F80
01F8
00F0
0020
ENDCHAR
STARTCHAR D
ENCODING 68
SWIDTH 602 0
DWIDTH 12 0
BBX 11 14 1 0
BITMAP
FF00
FFC0
E3C0
E1E0
E0E0
E0E0
E0E0
E0E0
E0E0
E0E0
E1C0
E3C0
FF80
FE00
ENDCHAR
STARTCHAR R
ENCODING 82
SWIDTH 602 0
DWIDTH 12 0
BBX 11 14 1 0
BITMAP
FF00
FF80
E1C0
E1C0
E1C0
E1C0
E380
FF00
FF00
E700
E780
E380
E1C0
E1E0
ENDCHAR
STARTCHAR E
ENCODING 69
SWIDTH 602 0
DWIDTH 12 0
BBX 10 14 1 0
BITMAP
FF80
FF80
E000
E000
E000
E000
FF00
FF00
E000
E000
E000
E000
FFC0
FFC0
ENDCHAR
STARTCHAR Eogonek
ENCODING 280
SWIDTH 602 0
DWIDTH 12 0
BBX 10 18 1 -4
BITMAP
FF80
FF80
E000
E000
E000
E000
FF00
FF00
E000
E000
E000
E000
FFC0
FFC0
00C0
0180
0180
01C0
ENDCHAR
STARTCHAR breve
ENCODING 728
SWIDTH 602 0
DWIDTH 12 0
BBX 6 3 3 11
BITMAP
CC
FC
78
ENDCHAR
STARTCHAR S
ENCODING 83
SWIDTH 602 0
DWIDTH 12 0
BBX 10 14 1 0
BITMAP
3F80
7F80
E080
E000
F000
FC00
3F00
1F80
07C0
01C0
01C0
83C0
FF80
FE00
ENDCHAR
STARTCHAR dotaccent
ENCODING 729
SWIDTH 602 0
DWIDTH 12 0
BBX 2 2 5 12
BITMAP
C0
C0
ENDCHAR
STARTCHAR eogonek
ENCODING 281
SWIDTH 602 0
DWIDTH 12 0
BBX 11 15 1 -4
BITMAP
1F00
3FC0
70C0
E0E0
FFE0
FFE0
E000
F000
7820
3FE0
1FC0
0600
0C00
0C00
0E00
ENDCHAR
STARTCHAR Ccaron
ENCODING 268
SWIDTH 602 0
DWIDTH 12 0
BBX 11 18 0 0
BITMAP
0CC0
0780
0300
0000
0FE0
3FE0
7820
7000
E000
E000
E000
E000
E000
E000
7000
7820
3FE0
0FC0
ENDCHAR
STARTCHAR T
ENCODING 84
SWIDTH 602 0
DWIDTH 12 0
BBX 11 14 1 0
BITMAP
FFE0
FFE0
0E00
0E00
0E00
0E00
0E00
0E00
0E00
0E00
0E00
0E00
0E00
0E00
ENDCHAR
STARTCHAR ccaron
ENCODING 269
SWIDTH 602 0
DWIDTH 12 0
BBX 10 15 1 0
BITMAP
0CC0
0780
0300
0000
1FC0
3FC0
7840
E000
E000
E000
E000
F000
7800
3FC0
1FC0
ENDCHAR
STARTCHAR Ecaron
ENCODING 282
SWIDTH 602 0
DWIDTH 12 0
BBX 10 18 1 0
BITMAP
3300
1E00
0C00
0000
FF80
FF80
E000
E000
E000
E000
FF00
FF00
E000
E000
E000
E000
FFC0
FFC0
ENDCHAR
STARTCHAR U
ENCODING 85
SWIDTH 602 0
DWIDTH 12 0
BBX 10 14 1 0
BITMAP
E1C0
E1C0
E1C0
E1C0
E1C0
E1C0
E1C0
E1C0
E1C0
E1C0
E1C0
F3C0
7F80
3F00
ENDCHAR
STARTCHAR ecaron
ENCODING 283
SWIDTH 602 0
DWIDTH 12 0
BBX 11 15 1 0
BITMAP
1980
0F00
0600
0000
1F00
3FC0
70C0
E0E0
FFE0
FFE0
E000
F000
7820
3FE0
1FC0
ENDCHAR
STARTCHAR V
ENCODING 86
SWIDTH 602 0
DWIDTH 12 0
BBX 12 14 0 0
BITMAP
E030
F060
7060
7060
78C0
38C0
38C0
3980
1D80
1D80
1F00
0F00
0F00
0E00
ENDCHAR
STARTCHAR W
ENCODING 87
SWIDTH 602 0
DWIDTH 12 0
BBX 12 14 0 0
BITMAP
E030
E730
E730
E730
7F60
7F60
7FE0
7FE0
7BE0
7BE0
7BE0
39C0
39C0
31C0
ENDCHAR
STARTCHAR X
ENCODING 88
SWIDTH 602 0
DWIDTH 12 0
BBX 11 14 1 0
BITMAP
F0E0
70C0
7980
3B80
3F00
1F00
0E00
0F00
1F00
1F80
3380
73C0
61C0
E1E0
ENDCHAR
STARTCHAR Y
ENCODING 89
SWIDTH 602 0
DWIDTH 12 0
BBX 12 14 0 0
BITMAP
E070
7060
78E0
38C0
3D80
1F80
1F00
0F00
0E00
0E00
0E00
0E00
0E00
0E00
ENDCHAR
ENDFONT
